<mxfile host="app.diagrams.net" modified="2021-02-11T23:07:52.407Z" agent="5.0 (Macintosh; Intel Mac OS X 10_14_6) AppleWebKit/537.36 (KHTML, like Gecko) Chrome/88.0.4324.150 Safari/537.36" etag="_taKqS4Q1SjEhjHnYzfv" version="14.2.9" type="github">
  <diagram id="da5GbFJlGxH_Y5CXgKHy" name="Page-1">
    <mxGraphModel dx="1426" dy="682" grid="1" gridSize="10" guides="1" tooltips="1" connect="1" arrows="1" fold="1" page="1" pageScale="1" pageWidth="850" pageHeight="1100" math="0" shadow="0">
      <root>
        <mxCell id="0" />
        <mxCell id="1" parent="0" />
        <mxCell id="SCtqEmnj88m3LmOEDBqm-1" value="" style="whiteSpace=wrap;html=1;aspect=fixed;" vertex="1" parent="1">
          <mxGeometry x="80" y="160" width="50" height="50" as="geometry" />
        </mxCell>
        <mxCell id="SCtqEmnj88m3LmOEDBqm-2" value="" style="whiteSpace=wrap;html=1;aspect=fixed;" vertex="1" parent="1">
          <mxGeometry x="80" y="230" width="50" height="50" as="geometry" />
        </mxCell>
        <mxCell id="SCtqEmnj88m3LmOEDBqm-3" value="" style="whiteSpace=wrap;html=1;aspect=fixed;" vertex="1" parent="1">
          <mxGeometry x="160" y="160" width="50" height="50" as="geometry" />
        </mxCell>
        <mxCell id="SCtqEmnj88m3LmOEDBqm-4" value="" style="whiteSpace=wrap;html=1;aspect=fixed;" vertex="1" parent="1">
          <mxGeometry x="160" y="230" width="50" height="50" as="geometry" />
        </mxCell>
        <mxCell id="SCtqEmnj88m3LmOEDBqm-5" value="" style="whiteSpace=wrap;html=1;aspect=fixed;" vertex="1" parent="1">
          <mxGeometry x="80" y="300" width="50" height="50" as="geometry" />
        </mxCell>
        <mxCell id="SCtqEmnj88m3LmOEDBqm-6" value="" style="whiteSpace=wrap;html=1;aspect=fixed;" vertex="1" parent="1">
          <mxGeometry x="160" y="300" width="50" height="50" as="geometry" />
        </mxCell>
        <mxCell id="SCtqEmnj88m3LmOEDBqm-7" value="&lt;font style=&quot;font-size: 18px&quot;&gt;Modules&lt;/font&gt;" style="text;html=1;strokeColor=none;fillColor=none;align=center;verticalAlign=middle;whiteSpace=wrap;rounded=0;" vertex="1" parent="1">
          <mxGeometry x="120" y="390" width="40" height="20" as="geometry" />
        </mxCell>
        <mxCell id="SCtqEmnj88m3LmOEDBqm-8" value=".js" style="text;html=1;strokeColor=none;fillColor=none;align=center;verticalAlign=middle;whiteSpace=wrap;rounded=0;" vertex="1" parent="1">
          <mxGeometry x="85" y="175" width="40" height="20" as="geometry" />
        </mxCell>
        <mxCell id="SCtqEmnj88m3LmOEDBqm-9" value=".png" style="text;html=1;strokeColor=none;fillColor=none;align=center;verticalAlign=middle;whiteSpace=wrap;rounded=0;" vertex="1" parent="1">
          <mxGeometry x="165" y="175" width="40" height="20" as="geometry" />
        </mxCell>
        <mxCell id="SCtqEmnj88m3LmOEDBqm-10" value=".css" style="text;html=1;strokeColor=none;fillColor=none;align=center;verticalAlign=middle;whiteSpace=wrap;rounded=0;" vertex="1" parent="1">
          <mxGeometry x="85" y="245" width="40" height="20" as="geometry" />
        </mxCell>
        <mxCell id="SCtqEmnj88m3LmOEDBqm-11" value=".js" style="text;html=1;strokeColor=none;fillColor=none;align=center;verticalAlign=middle;whiteSpace=wrap;rounded=0;" vertex="1" parent="1">
          <mxGeometry x="165" y="245" width="40" height="20" as="geometry" />
        </mxCell>
        <mxCell id="SCtqEmnj88m3LmOEDBqm-12" value=".png" style="text;html=1;strokeColor=none;fillColor=none;align=center;verticalAlign=middle;whiteSpace=wrap;rounded=0;" vertex="1" parent="1">
          <mxGeometry x="85" y="315" width="40" height="20" as="geometry" />
        </mxCell>
        <mxCell id="SCtqEmnj88m3LmOEDBqm-13" value=".css" style="text;html=1;strokeColor=none;fillColor=none;align=center;verticalAlign=middle;whiteSpace=wrap;rounded=0;" vertex="1" parent="1">
          <mxGeometry x="165" y="315" width="40" height="20" as="geometry" />
        </mxCell>
        <mxCell id="SCtqEmnj88m3LmOEDBqm-14" value="" style="endArrow=classic;html=1;entryX=0;entryY=0.5;entryDx=0;entryDy=0;" edge="1" parent="1" target="SCtqEmnj88m3LmOEDBqm-3">
          <mxGeometry width="50" height="50" relative="1" as="geometry">
            <mxPoint x="130" y="250" as="sourcePoint" />
            <mxPoint x="180" y="210" as="targetPoint" />
          </mxGeometry>
        </mxCell>
        <mxCell id="SCtqEmnj88m3LmOEDBqm-15" value="" style="endArrow=classic;html=1;entryX=0;entryY=0.5;entryDx=0;entryDy=0;" edge="1" parent="1" target="SCtqEmnj88m3LmOEDBqm-4">
          <mxGeometry width="50" height="50" relative="1" as="geometry">
            <mxPoint x="130" y="185" as="sourcePoint" />
            <mxPoint x="160" y="110" as="targetPoint" />
          </mxGeometry>
        </mxCell>
        <mxCell id="SCtqEmnj88m3LmOEDBqm-16" value="" style="endArrow=classic;html=1;entryX=1;entryY=0.5;entryDx=0;entryDy=0;exitX=0;exitY=0.5;exitDx=0;exitDy=0;" edge="1" parent="1" source="SCtqEmnj88m3LmOEDBqm-6" target="SCtqEmnj88m3LmOEDBqm-5">
          <mxGeometry width="50" height="50" relative="1" as="geometry">
            <mxPoint x="360" y="292.5" as="sourcePoint" />
            <mxPoint x="390" y="217.5" as="targetPoint" />
          </mxGeometry>
        </mxCell>
        <mxCell id="SCtqEmnj88m3LmOEDBqm-17" value="" style="endArrow=classic;html=1;entryX=1;entryY=0.5;entryDx=0;entryDy=0;exitX=0;exitY=0.5;exitDx=0;exitDy=0;" edge="1" parent="1" source="SCtqEmnj88m3LmOEDBqm-4" target="SCtqEmnj88m3LmOEDBqm-5">
          <mxGeometry width="50" height="50" relative="1" as="geometry">
            <mxPoint x="160" y="290" as="sourcePoint" />
            <mxPoint x="190" y="215" as="targetPoint" />
          </mxGeometry>
        </mxCell>
        <mxCell id="SCtqEmnj88m3LmOEDBqm-18" value="" style="endArrow=classic;html=1;" edge="1" parent="1">
          <mxGeometry width="50" height="50" relative="1" as="geometry">
            <mxPoint x="130" y="250" as="sourcePoint" />
            <mxPoint x="160" y="330" as="targetPoint" />
          </mxGeometry>
        </mxCell>
        <mxCell id="SCtqEmnj88m3LmOEDBqm-19" value="" style="endArrow=classic;html=1;exitX=0;exitY=0.5;exitDx=0;exitDy=0;" edge="1" parent="1" source="SCtqEmnj88m3LmOEDBqm-4">
          <mxGeometry width="50" height="50" relative="1" as="geometry">
            <mxPoint x="180" y="310" as="sourcePoint" />
            <mxPoint x="130" y="255" as="targetPoint" />
          </mxGeometry>
        </mxCell>
        <mxCell id="SCtqEmnj88m3LmOEDBqm-20" value="" style="shape=flexArrow;endArrow=classic;html=1;width=44;endSize=7.67;" edge="1" parent="1">
          <mxGeometry width="50" height="50" relative="1" as="geometry">
            <mxPoint x="290" y="253" as="sourcePoint" />
            <mxPoint x="475" y="253" as="targetPoint" />
          </mxGeometry>
        </mxCell>
        <mxCell id="SCtqEmnj88m3LmOEDBqm-22" value="&lt;font style=&quot;font-size: 18px&quot;&gt;Module Bundler&lt;/font&gt;" style="text;html=1;strokeColor=none;fillColor=none;align=center;verticalAlign=middle;whiteSpace=wrap;rounded=0;" vertex="1" parent="1">
          <mxGeometry x="305" y="289" width="130" height="20" as="geometry" />
        </mxCell>
        <mxCell id="SCtqEmnj88m3LmOEDBqm-25" value="" style="whiteSpace=wrap;html=1;aspect=fixed;" vertex="1" parent="1">
          <mxGeometry x="520" y="160" width="70" height="70" as="geometry" />
        </mxCell>
        <mxCell id="SCtqEmnj88m3LmOEDBqm-26" value="bundle.js" style="text;html=1;strokeColor=none;fillColor=none;align=center;verticalAlign=middle;whiteSpace=wrap;rounded=0;" vertex="1" parent="1">
          <mxGeometry x="520" y="185" width="70" height="20" as="geometry" />
        </mxCell>
        <mxCell id="SCtqEmnj88m3LmOEDBqm-27" value="" style="whiteSpace=wrap;html=1;aspect=fixed;" vertex="1" parent="1">
          <mxGeometry x="620" y="160" width="70" height="70" as="geometry" />
        </mxCell>
        <mxCell id="SCtqEmnj88m3LmOEDBqm-28" value=".css" style="text;html=1;strokeColor=none;fillColor=none;align=center;verticalAlign=middle;whiteSpace=wrap;rounded=0;" vertex="1" parent="1">
          <mxGeometry x="620" y="185" width="70" height="20" as="geometry" />
        </mxCell>
        <mxCell id="SCtqEmnj88m3LmOEDBqm-29" value="" style="whiteSpace=wrap;html=1;aspect=fixed;" vertex="1" parent="1">
          <mxGeometry x="520" y="253" width="70" height="70" as="geometry" />
        </mxCell>
        <mxCell id="SCtqEmnj88m3LmOEDBqm-30" value=".png" style="text;html=1;strokeColor=none;fillColor=none;align=center;verticalAlign=middle;whiteSpace=wrap;rounded=0;" vertex="1" parent="1">
          <mxGeometry x="520" y="278" width="70" height="20" as="geometry" />
        </mxCell>
        <mxCell id="SCtqEmnj88m3LmOEDBqm-31" value="" style="whiteSpace=wrap;html=1;aspect=fixed;" vertex="1" parent="1">
          <mxGeometry x="620" y="253" width="70" height="70" as="geometry" />
        </mxCell>
        <mxCell id="SCtqEmnj88m3LmOEDBqm-32" value=".png" style="text;html=1;strokeColor=none;fillColor=none;align=center;verticalAlign=middle;whiteSpace=wrap;rounded=0;" vertex="1" parent="1">
          <mxGeometry x="620" y="278" width="70" height="20" as="geometry" />
        </mxCell>
        <mxCell id="SCtqEmnj88m3LmOEDBqm-33" value="&lt;font style=&quot;font-size: 18px&quot;&gt;Static Files&lt;/font&gt;" style="text;html=1;strokeColor=none;fillColor=none;align=center;verticalAlign=middle;whiteSpace=wrap;rounded=0;" vertex="1" parent="1">
          <mxGeometry x="550" y="390" width="110" height="20" as="geometry" />
        </mxCell>
      </root>
    </mxGraphModel>
  </diagram>
</mxfile>
